<?xml version="1.0" encoding="utf-8"?>
<?xml-stylesheet type="text/xsl" href="rss1.xsl"?>
<rss version="2.0" xmlns:atom="http://www.w3.org/2005/Atom" xmlns:content="http://purl.org/rss/1.0/modules/content/" xmlns:dc="http://purl.org/dc/elements/1.1/" xmlns:media="http://search.yahoo.com/mrss/">
<channel>
 <title>Getty</title>
 <link>http://www.gettyimg.com/</link>
 <atom:link href="http://www.gettyimg.com/" rel="self" type="application/rss+xml" />

 
                <item>
                <title><![CDATA[【UPSCALED】Sting and Shaggy - Don't Make Me Wait (One Drop Remix) [4K AI Upscale | HEVC 10-bit | PCM]]]></title>
                <link><![CDATA[https://sharemania.us/threads/sting-and-shaggy-dont-make-me-wait-one-drop-remix-4k-ai-upscale-hevc-10-bit-pcm.245948/]]></link>
                <description><![CDATA[<article>
<blockquote class="messageText SelectQuoteContainer ugc baseHtml">
<b><img src="https://images2.imgbox.com/0a/1d/R5Tni8Zb_o.jpg" class="bbCodeImage LbImage" alt="[​IMG]" data-url="https://images2.imgbox.com/0a/1d/R5Tni8Zb_o.jpg" style=""> <br>
<br>
Genre: <span style="color: #0059b3">Reggae, Pop</span> <br>
Year: <span style="color: #0059b3">2018</span><br>
Video Source: <span style="color: #0059b3">Apple Music, thanks SonMaxime!</span><br>
Audio Source: <span style="color: #0059b3">Qobuz, CD quality, 16-bit 44.1 kHz</span></b><br>
<br>
"<b>Don't Make Me Wait</b>", is a song by English musician Sting and Jamaican musician Shaggy, written by Sting, Orville Burrell, Ashante Reid, Shaun Pizzonia, Kameron Quintin Jones and Kennard Garrett. It's the fifth track and the first single from 44/876, a collaborative album by Sting and Shaggy, released on 20 April 2018 by A&amp;M Records, Interscope Records and Cherrytree Records. The album won an award for Best Reggae Album at the 61st Grammy Awards in February 2019.<br>
<br>
The album's title refers to the country calling code for the United Kingdom (+44) and the North American area code for Jamaica (876), Sting's and Shaggy's respective home countries. <br>
<br>
"Don't Make Me Wait" was also included in Sting's <i>Duets</i> album in 2021.<br>
<br>
<b>Release Info</b><br>
The video track is upscaled with Topaz Video AI and encoded to HEVC 10-bit.<br>
The first PCM track is the One Drop Remix and the second is the regular mix.<br>
Both PCM tracks (Qobuz, 16-bit 44.1 kHz) are synced with Adobe Audition.<br>
The timed lyrics are created from scratch. Enable the subtitles to see the lyrics.<br>
<br>
<div class="ToggleTriggerAnchor bbCodeSpoilerContainer">
<button type="button" class="button bbCodeSpoilerButton ToggleTrigger Tooltip JsOnly" data-target="> .SpoilerTarget"><span>Spoiler: <span class="SpoilerTitle">Media Info</span></span></button>
<div class="SpoilerTarget bbCodeSpoilerText">
<div class="bbCodeBlock bbCodeCode">
<div class="type">Code:</div>
<pre>General
Unique ID                      : 201364450499786724773065820354373172141 (0x977D61EB35A167193E03AB3290DB3BAD)
Complete name                  : Sting and Shaggy - Don't Make Me Wait (One Drop Remix).mkv
Format                         : Matroska
Format version                 : Version 4 / Version 2
File size                      : 664 MiB
Duration                       : 4 min 2 s
Overall bit rate               : 23.0 Mb/s
Frame rate                     : 23.976 FPS
Encoded date                   : 2024-05-25 21:57:39 UTC
Writing application            : mkvmerge v84.0 ('Sleeper') 64-bit
Writing library                : libebml v1.4.5 + libmatroska v1.7.1

Video
ID                             : 1
Format                         : HEVC
Format/Info                    : High Efficiency Video Coding
Format profile                 : Main 10@L5@Main
Codec ID                       : V_MPEGH/ISO/HEVC
Duration                       : 4 min 2 s
Bit rate                       : 19.4 Mb/s
Width                          : 3 840 pixels
Height                         : 2 160 pixels
Display aspect ratio           : 16:9
Frame rate mode                : Constant
Frame rate                     : 23.976 (24000/1001) FPS
Color space                    : YUV
Chroma subsampling             : 4:2:0
Bit depth                      : 10 bits
Bits/(Pixel*Frame)             : 0.098
Stream size                    : 562 MiB (85%)
Default                        : Yes
Forced                         : No
Color range                    : Limited
Color primaries                : BT.709
Transfer characteristics       : BT.709
Matrix coefficients            : BT.709

Audio #1
ID                             : 2
Format                         : PCM
Format settings                : Little / Signed
Codec ID                       : A_PCM/INT/LIT
Duration                       : 4 min 2 s
Bit rate mode                  : Constant
Bit rate                       : 1 411.2 kb/s
Channel(s)                     : 2 channels
Sampling rate                  : 44.1 kHz
Frame rate                     : 25.002 FPS (1764 SPF)
Bit depth                      : 16 bits
Delay relative to video        : 50 ms
Stream size                    : 40.8 MiB (6%)
Title                          : One Drop Remix
Language                       : English
Default                        : Yes
Forced                         : No

Audio #2
ID                             : 3
Format                         : PCM
Format settings                : Little / Signed
Codec ID                       : A_PCM/INT/LIT
Duration                       : 4 min 2 s
Bit rate mode                  : Constant
Bit rate                       : 2 117 kb/s
Channel(s)                     : 2 channels
Sampling rate                  : 44.1 kHz
Frame rate                     : 25.002 FPS (1764 SPF)
Bit depth                      : 24 bits
Stream size                    : 61.2 MiB (9%)
Title                          : Lossless 24-bit
Language                       : English
Default                        : No
Forced                         : No

Text
ID                             : 4
Format                         : UTF-8
Codec ID                       : S_TEXT/UTF8
Codec ID/Info                  : UTF-8 Plain Text
Duration                       : 3 min 28 s
Bit rate                       : 83 b/s
Frame rate                     : 0.331 FPS
Count of elements              : 69
Stream size                    : 2.12 KiB (0%)
Title                          : Lyrics
Language                       : English
Default                        : No
Forced                         : No
</pre>
</div></div>
</div><br>
<b>Note to the peeps @ RuTracker: Give credit if you post the work of someone else!</b><br>
- Hurby4 aka ADHDerby<br>
<br>
<div class="bbCodeBlock bbCodeVfcHH HiddenContent">
<div class="attribution type">Hidden Content:</div>
<blockquote>You must reply before you can see the hidden data contained here.</blockquote>
</div>
<div class="messageTextEndMarker">&nbsp;</div>
</blockquote>
</article>]]></description>
                <author><![CDATA[ADHDerby]]></author>
                </item>

                
                <item>
                <title><![CDATA[【Albums (lossless)】FLAC - Train - Drops Of Jupiter [Qobuz Hi-Res 24-Bit/96 kHz]]]></title>
                <link><![CDATA[https://sharemania.us/threads/train-drops-of-jupiter-qobuz-hi-res-24-bit-96-khz.245949/]]></link>
                <description><![CDATA[<article>
<blockquote class="messageText SelectQuoteContainer ugc baseHtml">
<div style="text-align: center"><img src="https://imgur.com/0YaSrWE.jpeg" class="bbCodeImage LbImage" alt="[​IMG]" data-url="https://imgur.com/0YaSrWE.jpeg" style="">​</div><div style="text-align: right"><img src="https://imgur.com/h6XZpa2.png" class="bbCodeImage LbImage" alt="[​IMG]" data-url="https://imgur.com/h6XZpa2.png" style="">​</div><span style="font-family: 'Tahoma'"><i>Tracklist:</i></span><br>
<ol>
<li>She's On Fire</li>
<li>I Wish You Would<br>
</li>
<li>Drops of Jupiter (Tell Me)<br>
</li>
<li>It's About You<br>
</li>
<li>Hopeless</li>
<li>Respect</li>
<li>Let It Roll</li>
<li>Something More</li>
<li>Whipping Boy</li>
<li>Getaway</li>
<li>Mississippi</li>
</ol><span style="font-family: 'Tahoma'"><b>File size: </b>1.11 GB<br>
<b>Release date: </b>27/03/2001<br>
<b>1 disc(s) - 11 track(s)</b><br>
<b>Total length: </b>47 min 59 sec<br>
<b>Main artists: </b><a href="https://www.qobuz.com/nz-en/interpreter/train/167953" target="_blank" class="externalLink" rel="nofollow">Train</a><br>
<b>Label: </b><a href="https://www.qobuz.com/nz-en/label/columbia-legacy/download-streaming-albums/4637" target="_blank" class="externalLink" rel="nofollow">Columbia - Legacy</a><br>
<b>Genre: </b><a href="https://www.qobuz.com/nz-en/genre/rock/download-streaming-albums" target="_blank" class="externalLink" rel="nofollow">Rock</a><br>
℗ 2000, 2001 Columbia Records, a division of Sony Music Entertainment<br>
<br>
<b>DOWNLOAD:</b><br>
<b>Qiwi:</b>
<div class="bbCodeBlock bbCodeVfcHH HiddenContent">
<div class="attribution type">Hidden Content:</div>
<blockquote>You must either reply or click 'Like' to see the hidden information contained here.</blockquote>
</div><b>OneDrive:</b>
<div class="bbCodeBlock bbCodeVfcHH HiddenContent">
<div class="attribution type">Hidden Content:</div>
<blockquote>You must either reply or click 'Like' to see the hidden information contained here.</blockquote>
</div></span>
<div class="messageTextEndMarker">&nbsp;</div>
</blockquote>
</article>]]></description>
                <author><![CDATA[phantomswiftx]]></author>
                </item>

                </channel></rss>